<!--?xml version="1.0" encoding="utf-8"?-->
<!--Designed by Vexels.com - 2017 All Rights Reserved - https://vexels.com/terms-and-conditions/-->
<svg version="1.1" id="Layer_1" xmlns="http://www.w3.org/2000/svg" xmlns:xlink="http://www.w3.org/1999/xlink" x="0px" y="0px" viewBox="0 0 1200 1200" enable-background="new 0 0 1200 1200" xml:space="preserve">
<g>
	<path fill="#00A9B0" d="M1013.505,708.459c-0.963,0-1.914,0.072-2.872,0.093c18.678-51.939,28.92-107.869,28.92-166.161
		C1039.553,270.885,818.668,50,547.161,50S54.766,270.885,54.766,542.392c0,118.389,42.017,227.137,111.898,312.161
		c-24.242,12.587-40.867,37.886-40.867,67.035c0,41.646,33.879,75.532,75.526,75.532c31.588,0,58.675-19.515,69.933-47.106
		c16.084,10.922,32.904,20.814,50.266,29.806v49.456c0,66.568,54.163,120.724,120.73,120.724
		c64.842,0,117.756-51.422,120.466-115.608c60.679-1.897,118.624-14.753,171.894-36.771
		c65.915,80.645,154.296,145.126,160.191,149.382c2.761,1.996,6.011,2.996,9.26,2.996s6.5-1.001,9.262-2.996
		c9.452-6.826,231.014-168.467,231.891-303.994c0.019-0.346,0.024-0.698,0.019-1.056
		C1144.12,768.349,1085.034,708.459,1013.505,708.459z M694.523,842.923c0-0.167,0.006-0.401,0-0.649
		c0.926-56.356,45.79-102.184,100.09-102.184c42.443,0,80.405,27.992,94.461,69.651c2.175,6.425,8.203,10.756,14.987,10.756
		s12.814-4.331,14.989-10.756c14.054-41.658,52.018-69.651,94.455-69.651c54.348,0,99.249,45.908,100.095,102.345h0.006
		c-0.006,0.13-0.006,0.259-0.006,0.389c0,104.717-167.867,239.694-209.545,271.585
		C862.385,1082.542,694.523,947.652,694.523,842.923z M224.053,921.587c0,12.553-10.177,22.728-22.729,22.728
		s-22.729-10.176-22.729-22.728c0-12.552,10.177-22.729,22.729-22.729S224.053,909.034,224.053,921.587z M276.518,914.961
		c-2.908-33.241-27.411-60.367-59.381-67.21v-37.015c0-28.777,23.414-52.192,52.191-52.192c28.779,0,52.192,23.414,52.192,52.192
		v133.162C305.936,935.105,290.914,925.448,276.518,914.961z M442.251,1118.368c-49.127,0-89.098-39.965-89.098-89.093v-34.391
		c54.907,23.633,114.948,37.459,177.932,39.494C528.419,1081.127,489.655,1118.368,442.251,1118.368z M547.159,726.913
		c-37.297,0-68.582-25.921-76.993-60.675c23.707,9.942,49.718,15.453,76.993,15.453c27.279,0,53.291-5.512,77.002-15.455
		C615.75,700.99,584.463,726.913,547.159,726.913z M562.974,1002.754V757.283c53.568-7.7,94.919-53.689,95.099-109.31
		c53.525-35.872,88.839-96.898,88.839-166.03V367.681c13.948-6.115,23.723-20.037,23.723-36.215v-90.149
		c0-21.802-17.737-39.539-39.54-39.539c-13.492,0-25.416,6.804-32.555,17.15h-17.115c-26.85,0-48.689,21.839-48.689,48.683
		c0,26.849,21.838,48.689,48.689,48.689h10.131v15.167c0,16.178,9.777,30.1,23.723,36.215v114.262
		c0,92.701-75.421,168.116-168.122,168.116s-168.115-75.415-168.115-168.116V367.681c13.946-6.115,23.723-20.037,23.723-36.215
		v-15.167h10.125c26.85,0,48.69-21.839,48.69-48.689c0-26.843-21.84-48.683-48.69-48.683h-17.109
		c-7.138-10.346-19.063-17.15-32.555-17.15c-21.803,0-39.54,17.737-39.54,39.539v90.149c0,16.178,9.777,30.1,23.723,36.215v114.262
		c0,69.134,35.314,130.162,88.839,166.033c0.184,55.62,41.533,101.606,95.093,109.306v245.471
		c-63.468-2.156-123.7-17.173-178.192-42.58V810.736c0-46.218-37.605-83.823-83.824-83.823c-46.217,0-83.822,37.605-83.822,83.823
		v16.642c-61.978-78.483-99.109-177.449-99.109-284.986c0-254.064,206.696-460.761,460.76-460.761
		c254.067,0,460.764,206.697,460.764,460.761c0,60.877-11.978,118.979-33.52,172.225c-28.653,9.2-53.565,28.26-70.34,54.041
		c-24.063-36.982-64.85-60.199-109.448-60.199c-71.535,0-130.621,59.89-131.71,133.587c-0.005,0.155-0.011,0.624-0.011,0.779
		c0,42.105,21.624,86.854,51.67,128.716C667.298,990.043,616.284,1000.943,562.974,1002.754z M689.975,250.559v34.109h-8.549
		c-9.403,0-17.057-7.655-17.057-17.057s7.654-17.051,17.057-17.051H689.975z M404.349,284.668v-34.109h8.543
		c9.403,0,17.059,7.649,17.059,17.051s-7.655,17.057-17.059,17.057H404.349z" style="fill: rgb(21, 25, 29);"></path>
</g>
</svg>